<svg width="320" height="150" viewBox="0 0 320 150" fill="none" xmlns="http://www.w3.org/2000/svg">
<rect x="79" y="37" width="162" height="113" fill="white"/>
<line x1="79" y1="55.5" x2="241" y2="55.5" stroke="black" stroke-dasharray="2 2"/>
<rect x="87.5" y="75.5" width="146" height="60" stroke="#D9D9D9"/>
<circle cx="231" cy="46" r="3" fill="#555555"/>
<rect x="87" y="64" width="26" height="4" fill="#555555"/>
<rect x="128" y="42" width="64" height="8" fill="#D9D9D9"/>
<path d="M100.354 46.6464C100.158 46.4512 99.8417 46.4512 99.6464 46.6464L96.4645 49.8284C96.2692 50.0237 96.2692 50.3403 96.4645 50.5355C96.6597 50.7308 96.9763 50.7308 97.1716 50.5355L100 47.7071L102.828 50.5355C103.024 50.7308 103.34 50.7308 103.536 50.5355C103.731 50.3403 103.731 50.0237 103.536 49.8284L100.354 46.6464ZM100.5 62V47H99.5V62H100.5Z" fill="black"/>
</svg>
